<svg xmlns="http://www.w3.org/2000/svg" xmlns:xlink="http://www.w3.org/1999/xlink" width="500" zoomAndPan="magnify" viewBox="0 0 375 374.999991" height="500" preserveAspectRatio="xMidYMid meet" version="1.0"><defs><clipPath id="476d84d47c"><path d="M 11.335938 33 L 363.835938 33 L 363.835938 342 L 11.335938 342 Z M 11.335938 33 " clip-rule="nonzero"/></clipPath></defs><g clip-path="url(#476d84d47c)"><path fill="#263a8b" d="M 193.796875 247.039062 L 193.796875 265.742188 L 209.683594 271.5625 L 209.683594 252.855469 Z M 193.796875 210.523438 L 193.796875 229.230469 L 209.683594 235.046875 L 209.683594 216.34375 Z M 273.132812 188.800781 L 238.238281 211.453125 L 238.238281 304.957031 C 250.101562 306.292969 261.753906 308.09375 273.132812 310.363281 Z M 193.796875 174.039062 L 193.796875 192.71875 L 209.683594 198.539062 L 209.683594 179.855469 Z M 94.738281 168.792969 L 59.824219 191.445312 L 59.824219 321.113281 C 70.988281 317.535156 82.667969 314.441406 94.738281 311.855469 Z M 225.402344 149.125 L 225.402344 167.804688 L 241.292969 173.625 L 241.292969 154.945312 Z M 193.796875 137.53125 L 193.796875 156.238281 L 209.683594 162.058594 L 209.683594 143.351562 Z M 225.402344 112.613281 L 225.402344 131.324219 L 241.292969 137.117188 L 241.292969 118.4375 Z M 193.796875 101.027344 L 193.796875 119.730469 L 209.683594 125.546875 L 209.683594 106.839844 Z M 225.402344 76.109375 L 225.402344 94.816406 L 241.292969 100.632812 L 241.292969 81.925781 Z M 193.796875 64.515625 L 193.796875 83.21875 L 209.683594 89.039062 L 209.683594 70.332031 Z M 172.710938 46.597656 L 137.796875 69.25 L 137.796875 304.835938 C 149.308594 303.613281 160.96875 302.800781 172.710938 302.460938 Z M 180.011719 33.105469 L 254.835938 60.515625 L 254.835938 176.074219 L 220.183594 198.585938 L 220.183594 303.382812 C 223.738281 303.589844 227.324219 303.867188 230.886719 304.171875 L 230.886719 207.472656 L 280.460938 175.3125 L 322.683594 202.726562 L 322.683594 323.496094 C 337.5 328.625 351.285156 334.558594 363.765625 341.230469 L 11.40625 341.230469 C 23.890625 334.605469 37.675781 328.695312 52.472656 323.613281 L 52.472656 187.480469 L 102.050781 155.308594 L 130.464844 173.738281 L 130.464844 65.300781 Z M 180.011719 33.105469 " fill-opacity="1" fill-rule="evenodd"/></g></svg>