<svg xmlns="http://www.w3.org/2000/svg" xmlns:xlink="http://www.w3.org/1999/xlink" width="500" zoomAndPan="magnify" viewBox="0 0 375 374.999991" height="500" preserveAspectRatio="xMidYMid meet" version="1.0"><defs><clipPath id="8cf34041e6"><path d="M 13.492188 13.492188 L 361.492188 13.492188 L 361.492188 361.492188 L 13.492188 361.492188 Z M 13.492188 13.492188 " clip-rule="nonzero"/></clipPath></defs><g clip-path="url(#8cf34041e6)"><path fill="#263a8b" d="M 187.5 352.050781 C 96.761719 352.050781 22.941406 278.21875 22.941406 187.503906 C 22.941406 127.566406 55.171875 75.003906 103.210938 46.234375 C 105.039062 47.574219 107.328125 48.488281 110.25 48.488281 C 110.25 48.488281 113.40625 48.488281 93.242188 64.238281 C 73.066406 80.011719 74.949219 101.871094 81.25 88.109375 C 87.5625 74.332031 93.242188 79.378906 83.148438 98.929688 C 73.066406 118.484375 88.457031 112.167969 93.671875 124.140625 C 98.910156 136.113281 100.800781 121.628906 103.316406 144.328125 C 103.316406 144.328125 109.644531 151.886719 120.976562 148.105469 C 132.324219 144.328125 119.085938 158.175781 107.105469 169.539062 C 95.125 180.894531 98.902344 184.65625 105.214844 191.601562 C 111.515625 198.546875 114.050781 204.207031 108.371094 211.785156 C 102.703125 219.34375 117.195312 221.859375 120.976562 226.269531 C 124.757812 230.683594 124.121094 245.191406 115.304688 251.5 C 106.488281 257.792969 119.71875 271.667969 117.8125 291.21875 C 115.921875 310.75 116.386719 318.941406 125.296875 320.207031 C 134.214844 321.472656 124.121094 303.1875 127.902344 294.996094 C 131.691406 286.804688 136.113281 300.675781 144.933594 278.609375 C 144.933594 278.609375 160.707031 282.390625 167.613281 258.429688 C 167.613281 258.429688 181.488281 256.527344 184.015625 248.96875 C 186.550781 241.410156 183.386719 236.363281 203.550781 219.976562 C 223.714844 203.574219 189.679688 190.96875 171.414062 190.335938 C 171.414062 190.335938 164.710938 193.070312 176.457031 172.050781 C 181.578125 162.871094 166.363281 165.125 162.585938 156.933594 C 158.804688 148.738281 149.980469 139.28125 132.324219 141.160156 C 114.671875 143.058594 109.609375 149.375 109.003906 138.644531 C 108.371094 127.917969 116.554688 122.894531 107.730469 121.628906 C 98.910156 120.359375 103.316406 119.726562 112.792969 110.902344 C 112.792969 110.902344 107.105469 107.101562 101.433594 112.800781 C 95.753906 118.484375 85.664062 109.652344 97.648438 97.050781 C 109.644531 84.425781 128.535156 74.964844 127.277344 98.929688 C 126.023438 122.894531 134.847656 88.109375 134.847656 88.109375 C 134.847656 88.109375 148.085938 71.1875 164.484375 69.9375 C 180.851562 68.671875 170.78125 68.039062 170.78125 62.359375 C 170.78125 56.699219 178.339844 71.816406 187.5 68.039062 C 196.625 64.238281 177.707031 62.996094 179.609375 56.699219 C 181.488281 50.386719 192.230469 52.269531 196.625 60.480469 C 201.039062 68.671875 206.085938 56.066406 194.742188 42.8125 C 183.386719 29.589844 185.285156 37.785156 174.5625 43.441406 C 163.851562 49.121094 168.265625 52.269531 166.363281 42.8125 C 164.484375 33.367188 163.851562 43.441406 158.804688 38.414062 C 153.742188 33.367188 167.800781 35.695312 175.191406 36.515625 C 182.585938 37.316406 180.238281 32.101562 180.238281 32.101562 L 187.5 28.957031 C 187.5 28.957031 192.230469 35.882812 197.890625 34.617188 C 203.550781 33.367188 194.109375 24.523438 199.769531 25.789062 C 205.449219 27.054688 213.011719 22.011719 213.644531 29.589844 C 214.277344 37.148438 209.226562 47.238281 230.046875 35.882812 C 234.257812 33.59375 237.066406 32.101562 238.980469 31.210938 C 240.398438 31.675781 241.777344 32.160156 243.171875 32.679688 C 243.300781 34.1875 243.785156 36.144531 246.433594 37.785156 C 254.625 42.8125 252.113281 38.394531 262.816406 44.710938 C 273.542969 51.023438 266.597656 57.949219 274.789062 59.210938 C 282.984375 60.480469 290.5625 71.816406 284.269531 72.453125 C 277.957031 73.082031 277.320312 65.527344 267.882812 64.238281 C 258.40625 62.996094 271.664062 67.386719 277.957031 73.082031 C 284.269531 78.746094 284.269531 85.46875 277.957031 88.109375 C 271.664062 90.738281 276.316406 105.242188 286.59375 103.34375 C 296.875 101.445312 293.074219 90.738281 298.75 93.269531 C 304.433594 95.78125 302.535156 102.074219 311.996094 105.875 C 321.46875 109.652344 310.726562 114.679688 322.085938 115.3125 C 333.445312 115.949219 339.101562 120.359375 329.011719 124.773438 C 318.921875 129.207031 323.984375 132.964844 315.140625 122.242188 C 306.316406 111.535156 307.1875 121.796875 306.316406 111.535156 C 305.457031 101.277344 291.199219 110.902344 283.632812 112.167969 C 276.058594 113.433594 282.367188 120.992188 275.421875 122.242188 C 268.476562 123.511719 265.335938 121.628906 267.230469 138.011719 C 269.113281 154.421875 264.714844 158.175781 257.136719 158.175781 C 249.578125 158.175781 263.46875 167.003906 267.230469 178.363281 C 271.011719 189.703125 271.664062 196.644531 288.046875 192.234375 C 304.433594 187.820312 299.386719 187.820312 301.285156 196.644531 C 303.164062 205.472656 310.113281 191.601562 311.359375 200.425781 C 312.625 209.25 295.609375 211.152344 305.046875 216.8125 C 314.507812 222.472656 307.601562 235.730469 303.164062 238.875 C 298.75 242.039062 301.902344 253.363281 292.460938 258.429688 C 282.984375 263.472656 296.875 272.277344 291.199219 277.976562 C 285.535156 283.65625 270.378906 290.582031 276.058594 304.457031 C 281.753906 318.308594 281.753906 310.117188 293.726562 300.023438 C 305.679688 289.949219 315.792969 272.929688 321.46875 273.566406 C 323.5 273.789062 324.46875 275.371094 325.675781 276.714844 C 296.320312 322.015625 245.351562 352.050781 187.5 352.050781 Z M 187.5 13.5 C 91.539062 13.5 13.484375 91.554688 13.484375 187.503906 C 13.484375 283.433594 91.539062 361.507812 187.5 361.507812 C 283.433594 361.507812 361.484375 283.433594 361.484375 187.503906 C 361.484375 91.554688 283.433594 13.5 187.5 13.5 " fill-opacity="1" fill-rule="nonzero"/></g></svg>