<svg xmlns="http://www.w3.org/2000/svg" xmlns:xlink="http://www.w3.org/1999/xlink" width="500" zoomAndPan="magnify" viewBox="0 0 375 374.999991" height="500" preserveAspectRatio="xMidYMid meet" version="1.0"><defs><clipPath id="04c0bf98c9"><path d="M 11.839844 11.839844 L 362.839844 11.839844 L 362.839844 362.839844 L 11.839844 362.839844 Z M 11.839844 11.839844 " clip-rule="nonzero"/></clipPath></defs><g clip-path="url(#04c0bf98c9)"><path fill="#263a8b" d="M 187.339844 362.839844 C 140.460938 362.839844 96.390625 344.585938 63.242188 311.4375 C 30.09375 278.289062 11.839844 234.21875 11.839844 187.339844 C 11.839844 140.460938 30.09375 96.390625 63.242188 63.242188 C 96.390625 30.09375 140.460938 11.839844 187.339844 11.839844 C 234.21875 11.839844 278.289062 30.09375 311.4375 63.242188 C 344.582031 96.390625 362.839844 140.460938 362.839844 187.339844 C 362.839844 213.449219 355.519531 237.664062 355.183594 238.761719 C 352.261719 248.328125 348.492188 257.695312 343.972656 266.632812 L 361.167969 353.589844 C 361.507812 355.304688 360.980469 357.074219 359.757812 358.324219 C 358.535156 359.574219 356.773438 360.140625 355.050781 359.839844 L 266.003906 344.230469 C 256.582031 348.972656 246.695312 352.871094 236.589844 355.824219 C 235.597656 356.113281 212.21875 362.839844 187.339844 362.839844 Z M 187.339844 362.839844 " fill-opacity="1" fill-rule="nonzero"/></g></svg>