<svg xmlns="http://www.w3.org/2000/svg" xmlns:xlink="http://www.w3.org/1999/xlink" width="500" zoomAndPan="magnify" viewBox="0 0 375 374.999991" height="500" preserveAspectRatio="xMidYMid meet" version="1.0"><defs><clipPath id="674eb78846"><path d="M 4 13 L 371.613281 13 L 371.613281 363 L 4 363 Z M 4 13 " clip-rule="nonzero"/></clipPath><clipPath id="23372a7263"><path d="M 3.363281 12.109375 L 371 12.109375 L 371 362 L 3.363281 362 Z M 3.363281 12.109375 " clip-rule="nonzero"/></clipPath></defs><g clip-path="url(#674eb78846)"><path fill="#263a8b" d="M 187.964844 13.328125 L 244.699219 128.414062 L 371.613281 146.871094 L 279.753906 236.511719 L 301.507812 362.996094 L 187.964844 303.285156 L 74.355469 362.996094 L 96.03125 236.511719 L 4.246094 146.871094 L 131.160156 128.414062 Z M 187.964844 13.328125 " fill-opacity="1" fill-rule="nonzero"/></g><g clip-path="url(#23372a7263)"><path fill="#263a8b" d="M 187.085938 12.222656 L 243.890625 127.308594 L 370.804688 145.769531 L 278.945312 235.410156 L 300.625 361.894531 L 187.085938 302.183594 L 73.546875 361.894531 L 95.222656 235.410156 L 3.363281 145.769531 L 130.277344 127.308594 Z M 187.085938 12.222656 " fill-opacity="1" fill-rule="nonzero"/><path fill="#263a8b" d="M 187.085938 12.222656 L 243.890625 127.308594 L 370.804688 145.769531 L 278.945312 235.410156 L 300.625 361.894531 L 187.085938 302.183594 L 73.546875 361.894531 L 95.222656 235.410156 L 3.363281 145.769531 L 130.277344 127.308594 Z M 187.085938 12.222656 " fill-opacity="1" fill-rule="nonzero"/><path fill="#263a8b" d="M 187.085938 12.222656 L 243.890625 127.308594 L 370.804688 145.769531 L 278.945312 235.410156 L 300.625 361.894531 L 187.085938 302.183594 L 73.546875 361.894531 L 95.222656 235.410156 L 3.363281 145.769531 L 130.277344 127.308594 Z M 187.085938 12.222656 " fill-opacity="1" fill-rule="nonzero"/></g></svg>