<svg xmlns="http://www.w3.org/2000/svg" xmlns:xlink="http://www.w3.org/1999/xlink" width="500" zoomAndPan="magnify" viewBox="0 0 375 374.999991" height="500" preserveAspectRatio="xMidYMid meet" version="1.0"><defs><clipPath id="54150c98f9"><path d="M 146 330 L 229 330 L 229 363.070312 L 146 363.070312 Z M 146 330 " clip-rule="nonzero"/></clipPath><clipPath id="8d600a1476"><path d="M 28.019531 12.070312 L 346.769531 12.070312 L 346.769531 316 L 28.019531 316 Z M 28.019531 12.070312 " clip-rule="nonzero"/></clipPath></defs><g clip-path="url(#54150c98f9)"><path fill="#263a8b" d="M 227.457031 332.511719 C 226.679688 331.375 225.117188 330.59375 224.121094 330.738281 L 150.875 331.164062 C 150.875 331.164062 148.25 331.875 147.539062 333.011719 C 146.832031 334.148438 146.6875 335.570312 147.257812 336.777344 C 154.210938 352.761719 170.039062 363.066406 187.429688 363.066406 C 205.101562 363.066406 220.929688 352.550781 227.8125 336.277344 C 228.308594 335 228.167969 333.578125 227.457031 332.511719 Z M 227.457031 332.511719 " fill-opacity="1" fill-rule="nonzero"/></g><g clip-path="url(#8d600a1476)"><path fill="#263a8b" d="M 343.929688 293.152344 L 299 255.636719 L 299 155.667969 C 299 105.007812 265.074219 62.164062 218.800781 48.523438 C 219.011719 47.03125 219.296875 45.539062 219.296875 43.976562 C 219.296875 26.355469 205.03125 12.074219 187.429688 12.074219 C 169.828125 12.074219 155.5625 26.355469 155.5625 43.976562 C 155.5625 45.539062 155.84375 47.03125 156.058594 48.523438 C 109.78125 62.164062 75.855469 104.9375 75.855469 155.667969 L 75.855469 255.636719 L 30.855469 293.152344 C 29.011719 294.644531 28.019531 296.917969 28.019531 299.261719 L 28.019531 307.21875 C 28.019531 311.625 31.566406 315.175781 35.96875 315.175781 L 338.820312 315.175781 C 343.21875 315.175781 346.769531 311.625 346.769531 307.21875 L 346.769531 299.261719 C 346.769531 296.917969 345.703125 294.644531 343.929688 293.152344 Z M 171.601562 45.253906 C 171.601562 44.828125 171.460938 44.402344 171.460938 43.976562 C 171.460938 35.167969 178.628906 27.988281 187.429688 27.988281 C 196.230469 27.988281 203.328125 35.167969 203.328125 43.976562 C 203.328125 44.402344 203.257812 44.828125 203.183594 45.253906 C 198.003906 44.546875 192.75 43.976562 187.359375 43.976562 C 181.964844 43.976562 176.78125 44.472656 171.601562 45.253906 Z M 171.601562 45.253906 " fill-opacity="1" fill-rule="nonzero"/></g></svg>