<svg xmlns="http://www.w3.org/2000/svg" xmlns:xlink="http://www.w3.org/1999/xlink" width="500" zoomAndPan="magnify" viewBox="0 0 375 374.999991" height="500" preserveAspectRatio="xMidYMid meet" version="1.0"><defs><clipPath id="37ade5c643"><path d="M 218 7 L 316.808594 7 L 316.808594 191 L 218 191 Z M 218 7 " clip-rule="nonzero"/></clipPath></defs><path fill="#263a8b" d="M 151.914062 264.132812 C 144.316406 266.726562 112.199219 277.984375 96.824219 282.953125 C 93.167969 278.085938 89.628906 271.003906 86.707031 265.726562 C 77.320312 248.773438 71.152344 230.492188 66.296875 211.8125 C 63.699219 201.8125 61.082031 191.660156 60.125 181.425781 C 58.484375 163.804688 58.074219 146.046875 63.1875 128.75 C 66.253906 118.402344 71.417969 109.3125 81.554688 104.492188 C 97.046875 97.128906 111.496094 98.78125 124.347656 110.644531 C 133.226562 118.839844 142.503906 133.207031 147.316406 144.136719 C 154.214844 159.796875 155.929688 168.695312 158.527344 185.019531 C 159.492188 196.480469 156.691406 211.738281 154.050781 222.6875 C 151.253906 237.417969 151.371094 242.289062 151.128906 254.757812 C 151.359375 257.851562 151.644531 260.9375 151.914062 264.132812 " fill-opacity="1" fill-rule="nonzero"/><path fill="#263a8b" d="M 105.699219 302.3125 C 126.058594 294.839844 136.632812 291.175781 159.09375 283.867188 C 162.511719 289.523438 166.332031 295.300781 169.597656 301.378906 C 174.878906 311.207031 177.941406 321.726562 177.863281 332.996094 C 177.8125 340.277344 176.183594 347.167969 172.3125 353.414062 C 164.410156 366.160156 149.578125 370.105469 136.429688 362.914062 C 127.128906 357.828125 121.148438 349.71875 116.472656 340.492188 C 110.753906 329.214844 107.613281 315.039062 105.699219 302.3125 " fill-opacity="1" fill-rule="nonzero"/><g clip-path="url(#37ade5c643)"><path fill="#263a8b" d="M 229.347656 174.847656 C 237.082031 177 269.800781 186.375 285.4375 190.445312 C 288.804688 185.378906 291.925781 178.101562 294.539062 172.664062 C 302.929688 155.195312 308.027344 136.589844 311.796875 117.65625 C 313.8125 107.523438 315.839844 97.238281 316.195312 86.964844 C 316.816406 69.277344 316.199219 51.523438 310.09375 34.554688 C 306.433594 24.398438 300.75 15.625 290.355469 11.402344 C 274.460938 4.945312 260.132812 7.433594 247.988281 20.023438 C 239.601562 28.71875 231.167969 43.597656 226.996094 54.789062 C 221.015625 70.820312 219.816406 79.808594 218.167969 96.253906 C 217.871094 107.75 221.546875 122.820312 224.820312 133.597656 C 228.460938 148.140625 228.628906 153.007812 229.589844 165.445312 C 229.539062 168.546875 229.433594 171.644531 229.347656 174.847656 " fill-opacity="1" fill-rule="nonzero"/></g><path fill="#263a8b" d="M 277.695312 210.285156 C 256.9375 204.007812 246.167969 200.960938 223.324219 194.96875 C 220.242188 200.8125 216.757812 206.800781 213.851562 213.054688 C 209.144531 223.175781 206.699219 233.851562 207.429688 245.097656 C 207.898438 252.367188 209.925781 259.152344 214.152344 265.160156 C 222.78125 277.425781 237.816406 280.507812 250.523438 272.566406 C 259.511719 266.953125 265.015625 258.507812 269.148438 249.027344 C 274.203125 237.4375 276.523438 223.105469 277.695312 210.285156 " fill-opacity="1" fill-rule="nonzero"/></svg>