<svg xmlns="http://www.w3.org/2000/svg" xmlns:xlink="http://www.w3.org/1999/xlink" width="1900" zoomAndPan="magnify" viewBox="0 0 1425 412.499988" height="550" preserveAspectRatio="xMidYMid meet" version="1.0"><defs><g/><clipPath id="f5d59b5db3"><path d="M 82 123 L 1138 123 L 1138 375 L 82 375 Z M 82 123 " clip-rule="nonzero"/></clipPath><clipPath id="db1ac4fac1"><path d="M 104.300781 8.367188 L 1137.605469 123.867188 L 1103.15625 432.070312 L 69.851562 316.574219 Z M 104.300781 8.367188 " clip-rule="nonzero"/></clipPath><clipPath id="8d352b36f8"><path d="M 104.300781 8.367188 L 1181.527344 128.777344 L 1147.078125 436.980469 L 69.851562 316.574219 Z M 104.300781 8.367188 " clip-rule="nonzero"/></clipPath><clipPath id="773c395bd9"><path d="M 1122 47.78125 L 1358.984375 47.78125 L 1358.984375 181.121094 L 1122 181.121094 Z M 1122 47.78125 " clip-rule="nonzero"/></clipPath></defs><g clip-path="url(#f5d59b5db3)"><g clip-path="url(#db1ac4fac1)"><g clip-path="url(#8d352b36f8)"><path fill="#ffffff" d="M 578.101562 372.867188 C 581.550781 373.378906 584.789062 371.003906 585.304688 367.535156 C 585.816406 364.089844 583.4375 360.851562 579.992188 360.339844 C 576.523438 359.824219 573.304688 362.203125 572.769531 365.648438 C 572.257812 369.113281 574.636719 372.332031 578.101562 372.867188 Z M 604.207031 374.9375 C 607.710938 374.964844 610.574219 372.164062 610.601562 368.664062 C 610.632812 365.167969 607.828125 362.304688 604.328125 362.273438 C 600.828125 362.246094 597.964844 365.066406 597.933594 368.546875 C 597.90625 372.042969 600.730469 374.90625 604.207031 374.9375 Z M 552.488281 367.136719 C 555.839844 368.148438 559.382812 366.273438 560.394531 362.925781 C 561.425781 359.582031 559.53125 356.035156 556.203125 355.027344 C 552.855469 353.996094 549.308594 355.890625 548.296875 359.238281 C 547.265625 362.5625 549.164062 366.109375 552.488281 367.136719 Z M 630.367188 373.316406 C 633.839844 372.855469 636.277344 369.667969 635.8125 366.199219 C 635.351562 362.726562 632.164062 360.289062 628.691406 360.753906 C 625.21875 361.214844 622.78125 364.402344 623.265625 367.875 C 623.707031 371.339844 626.894531 373.777344 630.367188 373.316406 Z M 528.03125 357.546875 C 531.175781 359.066406 534.976562 357.75 536.496094 354.609375 C 537.996094 351.441406 536.675781 347.664062 533.53125 346.144531 C 530.386719 344.625 526.585938 345.964844 525.066406 349.105469 C 523.566406 352.25 524.886719 356.050781 528.03125 357.546875 Z M 655.988281 368.132812 C 659.363281 367.214844 661.367188 363.726562 660.449219 360.351562 C 659.550781 356.984375 656.054688 355 652.683594 355.898438 C 649.308594 356.816406 647.304688 360.304688 648.222656 363.679688 C 649.144531 367.050781 652.617188 369.03125 655.988281 368.132812 Z M 505.304688 344.605469 C 508.214844 346.519531 512.148438 345.730469 514.066406 342.800781 C 516.007812 339.898438 515.191406 335.964844 512.285156 334.046875 C 509.359375 332.105469 505.445312 332.921875 503.503906 335.824219 C 501.585938 338.753906 502.378906 342.664062 505.304688 344.605469 Z M 680.679688 359.875 C 683.925781 358.582031 685.527344 354.898438 684.230469 351.652344 C 682.9375 348.410156 679.269531 346.832031 676.003906 348.101562 C 672.761719 349.394531 671.179688 353.082031 672.472656 356.324219 C 673.746094 359.566406 677.433594 361.167969 680.679688 359.875 Z M 484.445312 329.066406 C 487.144531 331.300781 491.140625 330.917969 493.371094 328.238281 C 495.605469 325.539062 495.222656 321.546875 492.542969 319.316406 C 489.839844 317.101562 485.847656 317.460938 483.613281 320.164062 C 481.378906 322.84375 481.761719 326.835938 484.445312 329.066406 Z M 704.28125 349.179688 C 707.390625 347.597656 708.644531 343.789062 707.058594 340.679688 C 705.476562 337.554688 701.664062 336.320312 698.535156 337.902344 C 695.425781 339.488281 694.171875 343.296875 695.757812 346.402344 C 697.339844 349.53125 701.152344 350.761719 704.28125 349.179688 Z M 465.285156 311.765625 C 467.773438 314.210938 471.792969 314.152344 474.242188 311.644531 C 476.667969 309.132812 476.625 305.136719 474.117188 302.691406 C 471.605469 300.265625 467.585938 300.304688 465.160156 302.816406 C 462.714844 305.324219 462.777344 309.320312 465.285156 311.765625 Z M 726.816406 336.667969 C 729.796875 334.878906 730.765625 330.976562 728.976562 327.992188 C 727.164062 324.988281 723.28125 324.023438 720.277344 325.8125 C 717.292969 327.621094 716.328125 331.503906 718.113281 334.507812 C 719.925781 337.511719 723.808594 338.476562 726.816406 336.667969 Z M 447.398438 293.355469 C 449.789062 295.917969 453.785156 296.085938 456.367188 293.699219 C 458.925781 291.332031 459.074219 287.335938 456.707031 284.757812 C 454.339844 282.199219 450.320312 282.050781 447.761719 284.417969 C 445.179688 286.78125 445.03125 290.800781 447.398438 293.355469 Z M 748.429688 322.863281 C 751.324219 320.917969 752.101562 316.992188 750.136719 314.074219 C 748.1875 311.183594 744.257812 310.425781 741.339844 312.371094 C 738.445312 314.316406 737.6875 318.265625 739.636719 321.160156 C 741.585938 324.054688 745.535156 324.8125 748.429688 322.863281 Z M 430.382812 274.386719 C 432.679688 277 436.6875 277.277344 439.320312 274.980469 C 441.9375 272.664062 442.214844 268.660156 439.917969 266.046875 C 437.621094 263.410156 433.613281 263.15625 430.976562 265.449219 C 428.339844 267.746094 428.085938 271.75 430.382812 274.386719 Z M 769.332031 308.21875 C 772.175781 306.15625 772.808594 302.195312 770.746094 299.375 C 768.707031 296.535156 764.738281 295.921875 761.917969 297.960938 C 761.898438 297.960938 761.898438 297.960938 761.898438 297.960938 C 759.078125 300 758.445312 303.964844 760.507812 306.804688 C 762.546875 309.625 766.511719 310.257812 769.332031 308.21875 Z M 413.769531 255.226562 C 416.042969 257.878906 420.046875 258.15625 422.703125 255.863281 C 425.339844 253.566406 425.613281 249.585938 423.339844 246.933594 C 421.042969 244.300781 417.039062 244.019531 414.40625 246.296875 C 411.75 248.589844 411.472656 252.589844 413.769531 255.226562 Z M 789.78125 293.074219 C 792.585938 290.964844 793.136719 286.992188 791.027344 284.210938 C 788.9375 281.40625 784.964844 280.859375 782.160156 282.964844 C 779.378906 285.050781 778.804688 289.023438 780.914062 291.828125 C 783.023438 294.609375 787 295.160156 789.78125 293.074219 Z M 92.695312 213.667969 C 95.574219 211.699219 96.308594 207.769531 94.332031 204.871094 C 92.355469 201.996094 88.410156 201.257812 85.527344 203.230469 C 82.644531 205.222656 81.914062 209.152344 83.886719 212.046875 C 85.867188 214.921875 89.808594 215.660156 92.695312 213.667969 Z M 397.105469 236.316406 C 399.449219 238.914062 403.441406 239.125 406.039062 236.785156 C 408.636719 234.441406 408.851562 230.429688 406.527344 227.835938 C 404.183594 225.238281 400.171875 225.023438 397.574219 227.367188 C 394.976562 229.707031 394.761719 233.71875 397.105469 236.316406 Z M 113.8125 200.425781 C 116.8125 198.636719 117.785156 194.753906 115.992188 191.753906 C 114.199219 188.75 110.304688 187.785156 107.308594 189.570312 C 104.308594 191.359375 103.332031 195.242188 105.125 198.246094 C 106.917969 201.246094 110.808594 202.234375 113.8125 200.425781 Z M 809.992188 277.753906 C 812.777344 275.644531 813.308594 271.667969 811.195312 268.886719 C 809.085938 266.101562 805.113281 265.550781 802.328125 267.660156 C 799.542969 269.769531 799.011719 273.765625 801.121094 276.550781 C 803.234375 279.3125 807.207031 279.863281 809.992188 277.753906 Z M 379.992188 218.011719 C 382.433594 220.492188 386.445312 220.539062 388.945312 218.101562 C 391.449219 215.664062 391.492188 211.65625 389.035156 209.152344 C 386.59375 206.648438 382.585938 206.605469 380.082031 209.042969 C 377.597656 211.503906 377.554688 215.511719 379.992188 218.011719 Z M 135.570312 187.785156 C 135.570312 187.785156 135.570312 187.785156 135.574219 187.785156 C 138.613281 186.066406 139.683594 182.195312 137.960938 179.15625 C 136.242188 176.117188 132.375 175.027344 129.332031 176.769531 C 126.289062 178.488281 125.222656 182.339844 126.941406 185.398438 C 128.664062 188.433594 132.53125 189.503906 135.570312 187.785156 Z M 830.1875 262.601562 C 832.988281 260.535156 833.582031 256.570312 831.515625 253.75 C 829.429688 250.945312 825.460938 250.355469 822.660156 252.417969 C 819.835938 254.503906 819.242188 258.46875 821.328125 261.273438 C 823.394531 264.09375 827.363281 264.683594 830.1875 262.601562 Z M 362.015625 200.78125 C 364.648438 203.09375 368.644531 202.882812 370.976562 200.253906 C 373.28125 197.667969 373.074219 193.652344 370.464844 191.324219 C 367.859375 188.992188 363.839844 189.222656 361.507812 191.828125 C 359.199219 194.4375 359.410156 198.453125 362.015625 200.78125 Z M 157.542969 175.886719 C 160.671875 174.328125 161.953125 170.523438 160.394531 167.398438 C 158.835938 164.273438 155.035156 162.996094 151.90625 164.535156 C 148.777344 166.097656 147.496094 169.902344 149.054688 173.027344 C 150.609375 176.152344 154.414062 177.429688 157.542969 175.886719 Z M 850.601562 247.941406 C 853.476562 245.96875 854.175781 242.015625 852.203125 239.140625 C 850.207031 236.261719 846.25 235.566406 843.375 237.539062 C 840.519531 239.53125 839.800781 243.484375 841.792969 246.363281 C 843.769531 249.214844 847.722656 249.933594 850.601562 247.941406 Z M 342.859375 185.179688 C 345.664062 187.257812 349.640625 186.640625 351.699219 183.832031 C 353.777344 181.007812 353.160156 177.03125 350.332031 174.976562 C 347.523438 172.921875 343.546875 173.515625 341.492188 176.34375 C 339.433594 179.148438 340.03125 183.125 342.859375 185.179688 Z M 180.324219 166.90625 C 183.628906 165.769531 185.390625 162.164062 184.253906 158.855469 C 183.121094 155.542969 179.511719 153.78125 176.207031 154.917969 C 172.902344 156.054688 171.140625 159.660156 172.273438 162.972656 C 173.414062 166.261719 177.019531 168.023438 180.324219 166.90625 Z M 871.5 233.886719 C 874.410156 231.984375 875.214844 228.039062 873.289062 225.128906 C 871.363281 222.214844 867.4375 221.394531 864.527344 223.320312 C 861.59375 225.242188 860.789062 229.1875 862.71875 232.097656 C 864.644531 235.011719 868.566406 235.832031 871.5 233.886719 Z M 204.058594 159.878906 C 207.453125 159.046875 209.535156 155.609375 208.695312 152.222656 C 207.863281 148.839844 204.429688 146.757812 201.035156 147.589844 C 197.640625 148.417969 195.5625 151.859375 196.398438 155.242188 C 197.234375 158.648438 200.667969 160.710938 204.058594 159.878906 Z M 322.234375 171.898438 C 325.292969 173.601562 329.15625 172.503906 330.855469 169.445312 C 332.554688 166.40625 331.457031 162.546875 328.398438 160.847656 C 325.359375 159.148438 321.5 160.226562 319.796875 163.28125 C 318.097656 166.339844 319.195312 170.199219 322.234375 171.898438 Z M 228.25 155.28125 C 231.726562 154.820312 234.164062 151.628906 233.703125 148.160156 C 233.238281 144.710938 230.046875 142.273438 226.585938 142.714844 C 223.121094 143.179688 220.679688 146.367188 221.140625 149.835938 C 221.601562 153.285156 224.785156 155.742188 228.25 155.28125 Z M 300.203125 161.667969 C 303.492188 162.863281 307.121094 161.164062 308.316406 157.882812 C 309.511719 154.597656 307.816406 150.96875 304.53125 149.75 C 301.242188 148.578125 297.613281 150.273438 296.417969 153.535156 C 295.222656 156.820312 296.917969 160.472656 300.203125 161.667969 Z M 252.652344 153.632812 C 256.15625 153.644531 259 150.820312 259.007812 147.316406 C 259.019531 143.816406 256.171875 140.96875 252.6875 140.984375 C 249.183594 140.953125 246.339844 143.800781 246.332031 147.28125 C 246.324219 150.78125 249.171875 153.625 252.652344 153.632812 Z M 276.863281 155.574219 C 280.300781 156.152344 283.578125 153.820312 284.136719 150.359375 C 284.710938 146.921875 282.378906 143.664062 278.917969 143.089844 C 275.472656 142.535156 272.21875 144.867188 271.644531 148.304688 C 271.089844 151.746094 273.417969 155.019531 276.863281 155.574219 Z M 892.671875 220.246094 C 895.621094 218.390625 896.503906 214.476562 894.648438 211.507812 C 892.789062 208.5625 888.875 207.679688 885.925781 209.535156 C 882.957031 211.390625 882.074219 215.304688 883.929688 218.273438 C 885.789062 221.21875 889.703125 222.101562 892.671875 220.246094 Z M 914.132812 207.082031 C 917.136719 205.296875 918.101562 201.414062 916.3125 198.410156 C 914.523438 195.40625 910.640625 194.421875 907.636719 196.210938 C 904.632812 198.019531 903.644531 201.898438 905.433594 204.902344 C 907.222656 207.902344 911.125 208.890625 914.132812 207.082031 Z M 935.90625 194.507812 C 938.941406 192.808594 940.054688 188.941406 938.335938 185.90625 C 936.636719 182.847656 932.765625 181.757812 929.730469 183.457031 C 926.671875 185.175781 925.582031 189.023438 927.277344 192.078125 C 928.980469 195.113281 932.847656 196.226562 935.90625 194.507812 Z M 958.027344 182.628906 C 961.140625 181.023438 962.351562 177.210938 960.746094 174.101562 C 959.136719 170.992188 955.324219 169.777344 952.210938 171.382812 C 949.105469 172.96875 947.890625 176.804688 949.5 179.890625 C 951.085938 183 954.917969 184.234375 958.027344 182.628906 Z M 980.527344 171.554688 C 983.691406 170.0625 985.066406 166.289062 983.574219 163.128906 C 982.097656 159.96875 978.320312 158.613281 975.160156 160.085938 C 972.003906 161.558594 970.625 165.332031 972.097656 168.492188 C 973.589844 171.671875 977.367188 173.027344 980.527344 171.554688 Z M 1003.425781 161.460938 C 1006.65625 160.125 1008.199219 156.410156 1006.878906 153.1875 C 1005.542969 149.957031 1001.828125 148.417969 998.597656 149.753906 C 995.367188 151.09375 993.832031 154.785156 995.167969 158.011719 C 996.507812 161.242188 1000.199219 162.777344 1003.425781 161.460938 Z M 1026.769531 152.542969 C 1030.0625 151.402344 1031.804688 147.777344 1030.664062 144.488281 C 1029.503906 141.195312 1025.894531 139.453125 1022.582031 140.589844 C 1019.289062 141.75 1017.546875 145.355469 1018.707031 148.667969 C 1019.847656 151.960938 1023.476562 153.703125 1026.769531 152.542969 Z M 1050.519531 145.113281 C 1053.894531 144.175781 1055.878906 140.679688 1054.957031 137.328125 C 1054.015625 133.957031 1050.519531 131.972656 1047.167969 132.890625 C 1043.792969 133.832031 1041.808594 137.324219 1042.730469 140.675781 C 1043.667969 144.050781 1047.164062 146.035156 1050.519531 145.113281 Z M 1074.679688 139.492188 C 1078.109375 138.835938 1080.371094 135.519531 1079.734375 132.09375 C 1079.078125 128.667969 1075.761719 126.40625 1072.332031 127.042969 C 1068.90625 127.679688 1066.644531 130.992188 1067.28125 134.441406 C 1067.9375 137.867188 1071.230469 140.125 1074.679688 139.492188 Z M 1170.714844 145.894531 C 1173.9375 147.253906 1177.660156 145.714844 1178.996094 142.488281 C 1180.351562 139.285156 1178.835938 135.570312 1175.609375 134.214844 C 1172.382812 132.875 1168.664062 134.394531 1167.328125 137.617188 C 1165.96875 140.84375 1167.488281 144.558594 1170.714844 145.894531 Z M 1099.097656 136.148438 C 1102.589844 135.882812 1105.183594 132.816406 1104.914062 129.328125 C 1104.625 125.855469 1101.558594 123.261719 1098.085938 123.53125 C 1094.59375 123.820312 1092 126.886719 1092.289062 130.355469 C 1092.558594 133.847656 1095.625 136.441406 1099.097656 136.148438 Z M 1147.679688 138.757812 C 1151.105469 139.476562 1154.46875 137.308594 1155.191406 133.882812 C 1155.914062 130.460938 1153.742188 127.097656 1150.316406 126.375 C 1146.894531 125.652344 1143.527344 127.847656 1142.804688 131.246094 C 1142.082031 134.667969 1144.277344 138.035156 1147.679688 138.757812 Z M 1123.59375 135.703125 C 1127.082031 135.878906 1130.058594 133.175781 1130.214844 129.691406 C 1130.394531 126.1875 1127.707031 123.234375 1124.203125 123.054688 C 1120.71875 122.875 1117.738281 125.578125 1117.582031 129.066406 C 1117.40625 132.546875 1120.109375 135.527344 1123.59375 135.703125 Z M 1123.59375 135.703125 " fill-opacity="1" fill-rule="evenodd"/></g></g></g><g fill="#263a8b" fill-opacity="1"><g transform="translate(106.453984, 301.774556)"><g><path d="M 133.140625 -138.109375 C 133.140625 -141.734375 131.859375 -144.863281 129.296875 -147.5 C 126.734375 -150.132812 123.71875 -151.523438 120.25 -151.671875 L 77.3125 -151.671875 L 77.3125 -16.28125 C 77.457031 -12.351562 78.921875 -9.035156 81.703125 -6.328125 C 84.492188 -3.617188 87.851562 -2.265625 91.78125 -2.265625 L 94.71875 -2.265625 L 94.71875 0 L 45.203125 0 L 45.203125 -2.265625 L 48.140625 -2.265625 C 52.066406 -2.265625 55.421875 -3.617188 58.203125 -6.328125 C 60.992188 -9.035156 62.460938 -12.273438 62.609375 -16.046875 L 62.609375 -151.671875 L 19.671875 -151.671875 C 16.046875 -151.523438 12.988281 -150.132812 10.5 -147.5 C 8.019531 -144.863281 6.78125 -141.734375 6.78125 -138.109375 L 6.78125 -134.265625 L 4.515625 -134.046875 L 4.515625 -162.53125 C 6.773438 -161.625 10.691406 -160.71875 16.265625 -159.8125 C 21.847656 -158.90625 26.972656 -158.453125 31.640625 -158.453125 L 108.046875 -158.453125 C 115.429688 -158.453125 121.570312 -159.015625 126.46875 -160.140625 C 131.363281 -161.273438 134.34375 -162.070312 135.40625 -162.53125 L 135.40625 -134.046875 L 133.140625 -134.265625 Z M 133.140625 -138.109375 "/></g></g></g><g fill="#263a8b" fill-opacity="1"><g transform="translate(246.153643, 301.774556)"><g><path d="M 54.703125 -128.625 L 42.71875 -128.625 L 42.71875 -14.46875 C 42.875 -9.789062 44.984375 -6.25 49.046875 -3.84375 C 51.003906 -2.789062 53.191406 -2.265625 55.609375 -2.265625 L 58.546875 -2.265625 L 58.765625 0 L 12.4375 0 L 12.4375 -2.265625 L 15.59375 -2.265625 C 19.0625 -2.265625 22.035156 -3.429688 24.515625 -5.765625 C 27.003906 -8.097656 28.25 -10.921875 28.25 -14.234375 L 28.25 -121.609375 C 28.25 -124.929688 27.003906 -127.722656 24.515625 -129.984375 C 22.035156 -132.242188 19.0625 -133.375 15.59375 -133.375 L 12.4375 -133.375 L 12.4375 -135.625 L 69.171875 -135.625 C 83.335938 -135.625 94.523438 -132.382812 102.734375 -125.90625 C 110.953125 -119.425781 115.0625 -110.910156 115.0625 -100.359375 C 115.0625 -89.816406 111.742188 -81.003906 105.109375 -73.921875 C 98.484375 -66.835938 90.046875 -62.765625 79.796875 -61.703125 C 84.617188 -59.597656 90.421875 -53.722656 97.203125 -44.078125 C 97.046875 -44.078125 99.640625 -40.757812 104.984375 -34.125 C 110.335938 -27.5 114.632812 -22.335938 117.875 -18.640625 C 121.125 -14.953125 123.800781 -12.128906 125.90625 -10.171875 C 131.476562 -4.898438 137.882812 -2.265625 145.125 -2.265625 L 145.125 0 L 138.109375 0 C 126.203125 0 116.859375 -2.332031 110.078125 -7 C 104.960938 -10.46875 100.289062 -14.765625 96.0625 -19.890625 C 95.164062 -21.097656 91.363281 -26.410156 84.65625 -35.828125 C 77.945312 -45.242188 74.367188 -50.253906 73.921875 -50.859375 C 65.773438 -60.953125 58.164062 -66 51.09375 -66 L 51.09375 -68.265625 C 68.71875 -68.265625 79.335938 -69.171875 82.953125 -70.984375 C 87.929688 -73.546875 91.320312 -76.253906 93.125 -79.109375 C 96.894531 -85.140625 98.78125 -91.773438 98.78125 -99.015625 C 98.78125 -108.203125 96.066406 -115.28125 90.640625 -120.25 C 85.210938 -125.226562 77.90625 -127.941406 68.71875 -128.390625 C 64.644531 -128.546875 59.972656 -128.625 54.703125 -128.625 Z M 54.703125 -128.625 "/></g></g></g><g fill="#263a8b" fill-opacity="1"><g transform="translate(387.887773, 301.774556)"><g><path d="M 149.1875 -2.265625 L 151 -2.265625 L 151 0 L 104.65625 0 L 104.65625 -2.265625 L 106.46875 -2.265625 C 109.332031 -2.265625 111.515625 -3.242188 113.015625 -5.203125 C 114.523438 -7.160156 115.28125 -9.003906 115.28125 -10.734375 C 115.28125 -12.472656 114.976562 -14.171875 114.375 -15.828125 L 101.953125 -45.890625 L 44.75 -45.890625 L 32.328125 -16.5 C 31.566406 -14.539062 31.1875 -12.691406 31.1875 -10.953125 C 31.1875 -9.222656 31.941406 -7.34375 33.453125 -5.3125 C 34.960938 -3.28125 37.222656 -2.265625 40.234375 -2.265625 L 42.046875 -2.265625 L 42.046875 0 L -1.125 0 L -1.125 -2.265625 L 0.671875 -2.265625 C 3.835938 -2.265625 7.039062 -3.351562 10.28125 -5.53125 C 13.519531 -7.71875 16.195312 -11 18.3125 -15.375 C 51.3125 -85.894531 68.488281 -122.816406 69.84375 -126.140625 C 72.40625 -132.460938 73.765625 -136.679688 73.921875 -138.796875 L 75.953125 -138.796875 L 131.78125 -15.375 C 136.15625 -6.632812 141.957031 -2.265625 149.1875 -2.265625 Z M 47.703125 -52.671875 L 99.234375 -52.671875 L 73.921875 -114.609375 Z M 47.703125 -52.671875 "/></g></g></g><g fill="#263a8b" fill-opacity="1"><g transform="translate(537.75977, 301.774556)"><g><path d="M 151.21875 -133.375 L 149.40625 -133.375 C 146.09375 -133.375 142.851562 -132.28125 139.6875 -130.09375 C 136.519531 -127.90625 133.804688 -124.625 131.546875 -120.25 C 98.703125 -49.726562 81.597656 -12.8125 80.234375 -9.5 C 77.671875 -3.164062 76.316406 1.054688 76.171875 3.171875 L 74.140625 3.171875 L 18.296875 -120.03125 C 13.929688 -128.925781 8.128906 -133.375 0.890625 -133.375 L -0.90625 -133.375 L -0.90625 -135.625 L 45.421875 -135.625 L 45.421875 -133.375 L 43.625 -133.375 C 40.757812 -133.375 38.609375 -132.351562 37.171875 -130.3125 C 35.742188 -128.28125 35.03125 -126.4375 35.03125 -124.78125 C 35.03125 -123.125 35.253906 -121.390625 35.703125 -119.578125 L 76.171875 -21.015625 L 117.765625 -119.125 C 118.515625 -121.082031 118.890625 -122.925781 118.890625 -124.65625 C 118.890625 -126.394531 118.132812 -128.28125 116.625 -130.3125 C 115.125 -132.351562 112.863281 -133.375 109.84375 -133.375 L 108.265625 -133.375 L 108.265625 -135.625 L 151.21875 -135.625 Z M 151.21875 -133.375 "/></g></g></g><g fill="#263a8b" fill-opacity="1"><g transform="translate(687.631767, 301.774556)"><g><path d="M 15.59375 -2.265625 C 19.207031 -2.265625 22.257812 -3.429688 24.75 -5.765625 C 27.238281 -8.097656 28.554688 -10.921875 28.703125 -14.234375 L 28.703125 -121.609375 C 28.703125 -124.929688 27.421875 -127.722656 24.859375 -129.984375 C 22.296875 -132.242188 19.207031 -133.375 15.59375 -133.375 L 12.4375 -133.375 L 12.4375 -135.625 L 78.4375 -135.625 C 84.613281 -135.625 90.035156 -136.078125 94.703125 -136.984375 C 99.378906 -137.890625 102.394531 -138.644531 103.75 -139.25 L 103.75 -113.46875 L 101.265625 -113.703125 L 101.265625 -117.09375 C 101.265625 -120.257812 100.207031 -122.972656 98.09375 -125.234375 C 95.988281 -127.492188 93.28125 -128.625 89.96875 -128.625 L 42.953125 -128.625 L 42.953125 -71.203125 L 81.609375 -71.203125 C 84.617188 -71.203125 86.914062 -72.101562 88.5 -73.90625 C 90.082031 -75.71875 90.875 -77.984375 90.875 -80.703125 L 90.875 -83.640625 L 93.359375 -83.640625 L 93.359375 -51.984375 L 90.875 -51.984375 L 90.875 -54.921875 C 90.875 -59.148438 89.289062 -62.015625 86.125 -63.515625 C 84.914062 -63.972656 83.632812 -64.273438 82.28125 -64.421875 L 42.953125 -64.421875 L 42.953125 -7 L 78.4375 -7 C 85.375 -7 91.210938 -8.203125 95.953125 -10.609375 C 100.703125 -13.023438 104.316406 -15.890625 106.796875 -19.203125 C 109.285156 -22.523438 111.8125 -26.898438 114.375 -32.328125 L 116.640625 -32.328125 L 104.203125 0 L 12.4375 0 L 12.4375 -2.265625 Z M 15.59375 -2.265625 "/></g></g></g><g fill="#263a8b" fill-opacity="1"><g transform="translate(811.055744, 301.774556)"><g><path d="M 15.59375 -2.265625 C 19.207031 -2.265625 22.257812 -3.429688 24.75 -5.765625 C 27.238281 -8.097656 28.554688 -10.921875 28.703125 -14.234375 L 28.703125 -121.15625 C 28.554688 -124.476562 27.160156 -127.34375 24.515625 -129.75 C 21.878906 -132.164062 18.753906 -133.375 15.140625 -133.375 L 12.4375 -133.375 L 12.4375 -135.625 L 59.21875 -135.625 L 59.21875 -133.375 L 56.515625 -133.375 C 52.898438 -133.375 49.769531 -132.164062 47.125 -129.75 C 44.488281 -127.34375 43.171875 -124.476562 43.171875 -121.15625 L 43.171875 -7 L 78.4375 -7 C 85.375 -7 91.25 -8.203125 96.0625 -10.609375 C 100.882812 -13.023438 104.539062 -15.890625 107.03125 -19.203125 C 109.519531 -22.523438 111.96875 -26.898438 114.375 -32.328125 L 116.640625 -32.328125 L 104.203125 0 L 12.4375 0 L 12.4375 -2.265625 Z M 15.59375 -2.265625 "/></g></g></g><g fill="#263a8b" fill-opacity="1"><g transform="translate(932.219229, 301.774556)"><g><path d="M 15.59375 -2.265625 C 19.207031 -2.265625 22.257812 -3.429688 24.75 -5.765625 C 27.238281 -8.097656 28.554688 -10.921875 28.703125 -14.234375 L 28.703125 -121.15625 C 28.554688 -124.476562 27.160156 -127.34375 24.515625 -129.75 C 21.878906 -132.164062 18.753906 -133.375 15.140625 -133.375 L 12.4375 -133.375 L 12.4375 -135.625 L 59.21875 -135.625 L 59.21875 -133.375 L 56.515625 -133.375 C 52.898438 -133.375 49.769531 -132.164062 47.125 -129.75 C 44.488281 -127.34375 43.171875 -124.476562 43.171875 -121.15625 L 43.171875 -7 L 78.4375 -7 C 85.375 -7 91.25 -8.203125 96.0625 -10.609375 C 100.882812 -13.023438 104.539062 -15.890625 107.03125 -19.203125 C 109.519531 -22.523438 111.96875 -26.898438 114.375 -32.328125 L 116.640625 -32.328125 L 104.203125 0 L 12.4375 0 L 12.4375 -2.265625 Z M 15.59375 -2.265625 "/></g></g></g><g fill="#263a8b" fill-opacity="1"><g transform="translate(1053.382714, 301.774556)"><g><path d="M 15.59375 -2.265625 C 19.207031 -2.265625 22.257812 -3.429688 24.75 -5.765625 C 27.238281 -8.097656 28.554688 -10.921875 28.703125 -14.234375 L 28.703125 -121.609375 C 28.703125 -124.929688 27.421875 -127.722656 24.859375 -129.984375 C 22.296875 -132.242188 19.207031 -133.375 15.59375 -133.375 L 12.4375 -133.375 L 12.4375 -135.625 L 78.4375 -135.625 C 84.613281 -135.625 90.035156 -136.078125 94.703125 -136.984375 C 99.378906 -137.890625 102.394531 -138.644531 103.75 -139.25 L 103.75 -113.46875 L 101.265625 -113.703125 L 101.265625 -117.09375 C 101.265625 -120.257812 100.207031 -122.972656 98.09375 -125.234375 C 95.988281 -127.492188 93.28125 -128.625 89.96875 -128.625 L 42.953125 -128.625 L 42.953125 -71.203125 L 81.609375 -71.203125 C 84.617188 -71.203125 86.914062 -72.101562 88.5 -73.90625 C 90.082031 -75.71875 90.875 -77.984375 90.875 -80.703125 L 90.875 -83.640625 L 93.359375 -83.640625 L 93.359375 -51.984375 L 90.875 -51.984375 L 90.875 -54.921875 C 90.875 -59.148438 89.289062 -62.015625 86.125 -63.515625 C 84.914062 -63.972656 83.632812 -64.273438 82.28125 -64.421875 L 42.953125 -64.421875 L 42.953125 -7 L 78.4375 -7 C 85.375 -7 91.210938 -8.203125 95.953125 -10.609375 C 100.703125 -13.023438 104.316406 -15.890625 106.796875 -19.203125 C 109.285156 -22.523438 111.8125 -26.898438 114.375 -32.328125 L 116.640625 -32.328125 L 104.203125 0 L 12.4375 0 L 12.4375 -2.265625 Z M 15.59375 -2.265625 "/></g></g></g><g fill="#263a8b" fill-opacity="1"><g transform="translate(1176.806691, 301.774556)"><g><path d="M 54.703125 -128.625 L 42.71875 -128.625 L 42.71875 -14.46875 C 42.875 -9.789062 44.984375 -6.25 49.046875 -3.84375 C 51.003906 -2.789062 53.191406 -2.265625 55.609375 -2.265625 L 58.546875 -2.265625 L 58.765625 0 L 12.4375 0 L 12.4375 -2.265625 L 15.59375 -2.265625 C 19.0625 -2.265625 22.035156 -3.429688 24.515625 -5.765625 C 27.003906 -8.097656 28.25 -10.921875 28.25 -14.234375 L 28.25 -121.609375 C 28.25 -124.929688 27.003906 -127.722656 24.515625 -129.984375 C 22.035156 -132.242188 19.0625 -133.375 15.59375 -133.375 L 12.4375 -133.375 L 12.4375 -135.625 L 69.171875 -135.625 C 83.335938 -135.625 94.523438 -132.382812 102.734375 -125.90625 C 110.953125 -119.425781 115.0625 -110.910156 115.0625 -100.359375 C 115.0625 -89.816406 111.742188 -81.003906 105.109375 -73.921875 C 98.484375 -66.835938 90.046875 -62.765625 79.796875 -61.703125 C 84.617188 -59.597656 90.421875 -53.722656 97.203125 -44.078125 C 97.046875 -44.078125 99.640625 -40.757812 104.984375 -34.125 C 110.335938 -27.5 114.632812 -22.335938 117.875 -18.640625 C 121.125 -14.953125 123.800781 -12.128906 125.90625 -10.171875 C 131.476562 -4.898438 137.882812 -2.265625 145.125 -2.265625 L 145.125 0 L 138.109375 0 C 126.203125 0 116.859375 -2.332031 110.078125 -7 C 104.960938 -10.46875 100.289062 -14.765625 96.0625 -19.890625 C 95.164062 -21.097656 91.363281 -26.410156 84.65625 -35.828125 C 77.945312 -45.242188 74.367188 -50.253906 73.921875 -50.859375 C 65.773438 -60.953125 58.164062 -66 51.09375 -66 L 51.09375 -68.265625 C 68.71875 -68.265625 79.335938 -69.171875 82.953125 -70.984375 C 87.929688 -73.546875 91.320312 -76.253906 93.125 -79.109375 C 96.894531 -85.140625 98.78125 -91.773438 98.78125 -99.015625 C 98.78125 -108.203125 96.066406 -115.28125 90.640625 -120.25 C 85.210938 -125.226562 77.90625 -127.941406 68.71875 -128.390625 C 64.644531 -128.546875 59.972656 -128.625 54.703125 -128.625 Z M 54.703125 -128.625 "/></g></g></g><g clip-path="url(#773c395bd9)"><path fill="#ffffff" d="M 1343.789062 88.792969 C 1350.261719 91.371094 1358.992188 91.371094 1358.992188 98.476562 C 1358.992188 115.25 1289.4375 125.25 1286.847656 125.25 L 1263.882812 175.265625 C 1262.257812 179.132812 1259.996094 180.105469 1257.402344 180.421875 L 1249.957031 181.070312 L 1249.957031 146.230469 L 1235.402344 133.320312 C 1233.785156 133.320312 1224.394531 134.925781 1204.992188 134.925781 C 1182.34375 134.925781 1176.195312 133.964844 1174.578125 133.964844 L 1171.996094 144.933594 C 1171.664062 146.875 1166.164062 147.835938 1165.199219 146.546875 L 1153.546875 131.058594 C 1151.289062 131.058594 1145.460938 130.421875 1145.460938 128.476562 C 1145.460938 125.902344 1146.433594 124.933594 1147.726562 124.289062 L 1123.136719 101.375 C 1121.523438 99.769531 1127.347656 96.542969 1132.519531 99.113281 L 1156.460938 110.40625 L 1154.839844 91.695312 L 1160.34375 90.738281 C 1162.285156 90.410156 1166.496094 93.320312 1167.785156 94.597656 L 1184.617188 112.667969 L 1213.730469 107.179688 L 1200.136719 93.320312 L 1136.410156 53.308594 L 1141.902344 49.113281 C 1141.902344 49.113281 1143.203125 47.820312 1147.730469 47.820312 L 1274.230469 96.867188 L 1313.699219 89.445312 C 1315.316406 89.117188 1322.113281 85.25 1330.199219 85.25 C 1338.941406 85.25 1338.941406 86.859375 1343.792969 88.792969 " fill-opacity="1" fill-rule="nonzero"/></g></svg>