<svg xmlns="http://www.w3.org/2000/svg" xmlns:xlink="http://www.w3.org/1999/xlink" width="1900" zoomAndPan="magnify" viewBox="0 0 1425 412.499988" height="550" preserveAspectRatio="xMidYMid meet" version="1.0"><defs><g/><clipPath id="id1"><path d="M 1118 6.824219 L 1403.289062 6.824219 L 1403.289062 168.628906 L 1118 168.628906 Z M 1118 6.824219 " clip-rule="nonzero"/></clipPath><clipPath id="id2"><path d="M 130 106 L 1134.277344 106 L 1134.277344 405 L 130 405 Z M 130 106 " clip-rule="nonzero"/></clipPath></defs><g clip-path="url(#id1)"><path fill="#ffffff" d="M 1384.929688 56.585938 C 1392.75 59.71875 1403.296875 59.71875 1403.296875 68.339844 C 1403.296875 88.695312 1319.265625 100.832031 1316.132812 100.832031 L 1288.386719 161.519531 C 1286.425781 166.214844 1283.691406 167.394531 1280.558594 167.777344 L 1271.5625 168.5625 L 1271.5625 126.285156 L 1253.976562 110.621094 C 1252.019531 110.621094 1240.679688 112.570312 1217.234375 112.570312 C 1189.871094 112.570312 1182.441406 111.402344 1180.488281 111.402344 L 1177.367188 124.710938 C 1176.96875 127.070312 1170.324219 128.238281 1169.15625 126.671875 L 1155.082031 107.875 C 1152.351562 107.875 1145.3125 107.101562 1145.3125 104.746094 C 1145.3125 101.621094 1146.484375 100.445312 1148.046875 99.664062 L 1118.339844 71.859375 C 1116.390625 69.90625 1123.425781 65.996094 1129.671875 69.113281 L 1158.601562 82.816406 L 1156.644531 60.109375 L 1163.292969 58.949219 C 1165.636719 58.550781 1170.726562 62.082031 1172.28125 63.632812 L 1192.617188 85.5625 L 1227.792969 78.902344 L 1211.371094 62.082031 L 1134.375 13.53125 L 1141.011719 8.4375 C 1141.011719 8.4375 1142.582031 6.871094 1148.050781 6.871094 L 1300.886719 66.386719 L 1348.578125 57.382812 C 1350.53125 56.984375 1358.742188 52.289062 1368.511719 52.289062 C 1379.074219 52.289062 1379.074219 54.242188 1384.9375 56.585938 " fill-opacity="1" fill-rule="nonzero"/></g><g clip-path="url(#id2)"><path fill="#ffffff" d="M 623.789062 404.628906 C 627.152344 404.75 630.007812 402.121094 630.128906 398.734375 C 630.253906 395.371094 627.621094 392.519531 624.257812 392.394531 C 620.871094 392.273438 618.035156 394.902344 617.894531 398.265625 C 617.769531 401.652344 620.402344 404.484375 623.789062 404.628906 Z M 649.074219 403.8125 C 652.441406 403.464844 654.886719 400.46875 654.542969 397.105469 C 654.195312 393.742188 651.195312 391.296875 647.832031 391.640625 C 644.46875 391.988281 642.019531 395.003906 642.367188 398.347656 C 642.714844 401.710938 645.730469 404.160156 649.074219 403.8125 Z M 598.582031 401.875 C 601.90625 402.488281 605.105469 400.304688 605.71875 396.984375 C 606.351562 393.660156 604.148438 390.460938 600.84375 389.847656 C 597.519531 389.214844 594.320312 391.417969 593.707031 394.742188 C 593.074219 398.042969 595.277344 401.242188 598.582031 401.875 Z M 674.019531 399.449219 C 677.300781 398.632812 679.300781 395.3125 678.484375 392.03125 C 677.667969 388.746094 674.34375 386.75 671.0625 387.566406 C 667.777344 388.378906 665.777344 391.703125 666.613281 394.984375 C 667.410156 398.265625 670.734375 400.265625 674.019531 399.449219 Z M 574.066406 395.292969 C 577.25 396.414062 580.757812 394.742188 581.878906 391.558594 C 582.980469 388.359375 581.308594 384.875 578.125 383.753906 C 574.945312 382.632812 571.4375 384.324219 570.316406 387.503906 C 569.214844 390.683594 570.886719 394.191406 574.066406 395.292969 Z M 698.0625 391.722656 C 701.203125 390.480469 702.753906 386.914062 701.507812 383.773438 C 700.285156 380.632812 696.714844 379.105469 693.574219 380.328125 C 690.433594 381.570312 688.886719 385.140625 690.128906 388.277344 C 691.375 391.417969 694.921875 392.945312 698.0625 391.722656 Z M 550.859375 385.300781 C 553.855469 386.832031 557.546875 385.648438 559.078125 382.632812 C 560.628906 379.636719 559.425781 375.945312 556.425781 374.417969 C 553.40625 372.867188 549.738281 374.070312 548.1875 377.066406 C 546.65625 380.082031 547.839844 383.753906 550.859375 385.300781 Z M 720.882812 381.144531 C 723.859375 379.554688 725.003906 375.84375 723.414062 372.867188 C 721.820312 369.890625 718.128906 368.769531 715.132812 370.339844 C 712.15625 371.929688 711.03125 375.640625 712.625 378.617188 C 714.195312 381.59375 717.90625 382.734375 720.882812 381.144531 Z M 529.160156 372.621094 C 531.996094 374.476562 535.789062 373.683594 537.644531 370.871094 C 539.5 368.035156 538.703125 364.246094 535.890625 362.390625 C 533.054688 360.554688 529.261719 361.328125 527.40625 364.164062 C 525.550781 366.976562 526.34375 370.765625 529.160156 372.621094 Z M 742.398438 368.339844 C 745.214844 366.488281 746.007812 362.695312 744.152344 359.882812 C 742.296875 357.046875 738.503906 356.273438 735.667969 358.128906 C 732.855469 359.984375 732.058594 363.777344 733.914062 366.589844 C 735.769531 369.421875 739.5625 370.195312 742.398438 368.339844 Z M 508.910156 358.066406 C 511.558594 360.148438 515.414062 359.65625 517.496094 356.988281 C 519.554688 354.316406 519.085938 350.484375 516.414062 348.40625 C 513.742188 346.347656 509.886719 346.816406 507.828125 349.484375 C 505.746094 352.15625 506.238281 355.988281 508.910156 358.066406 Z M 762.691406 353.910156 C 765.363281 351.871094 765.871094 348.015625 763.832031 345.347656 C 761.773438 342.65625 757.9375 342.144531 755.246094 344.183594 C 752.574219 346.242188 752.066406 350.078125 754.105469 352.765625 C 756.164062 355.457031 760 355.96875 762.691406 353.910156 Z M 489.757812 342.308594 C 492.328125 344.511719 496.183594 344.246094 498.40625 341.675781 C 500.609375 339.128906 500.324219 335.277344 497.773438 333.054688 C 495.222656 330.851562 491.347656 331.136719 489.148438 333.6875 C 486.921875 336.234375 487.210938 340.109375 489.757812 342.308594 Z M 781.964844 338.335938 C 784.53125 336.152344 784.859375 332.300781 782.65625 329.710938 C 780.472656 327.144531 776.621094 326.835938 774.03125 329.019531 C 771.460938 331.199219 771.15625 335.074219 773.335938 337.640625 C 775.519531 340.210938 779.394531 340.515625 781.964844 338.335938 Z M 471.382812 325.917969 C 473.871094 328.183594 477.746094 328.019531 480.03125 325.53125 C 482.292969 323.023438 482.132812 319.152344 479.644531 316.890625 C 477.15625 314.605469 473.28125 314.789062 470.996094 317.277344 C 468.710938 319.761719 468.894531 323.636719 471.382812 325.917969 Z M 800.460938 322.027344 C 802.96875 319.742188 803.152344 315.871094 800.867188 313.382812 C 798.605469 310.875 794.730469 310.710938 792.242188 312.976562 C 792.222656 312.976562 792.222656 312.976562 792.222656 312.976562 C 789.734375 315.238281 789.550781 319.109375 791.832031 321.617188 C 794.097656 324.105469 797.972656 324.289062 800.460938 322.027344 Z M 453.375 309.304688 C 455.84375 311.609375 459.71875 311.445312 462.023438 308.960938 C 464.308594 306.472656 464.144531 302.621094 461.675781 300.316406 C 459.1875 298.03125 455.3125 298.195312 453.027344 300.664062 C 450.722656 303.148438 450.886719 307.023438 453.375 309.304688 Z M 818.46875 305.289062 C 820.9375 302.964844 821.039062 299.09375 818.714844 296.648438 C 816.410156 294.179688 812.535156 294.078125 810.066406 296.402344 C 807.617188 298.707031 807.496094 302.578125 809.820312 305.046875 C 812.148438 307.492188 816.019531 307.59375 818.46875 305.289062 Z M 140.632812 303.863281 C 143.191406 301.660156 143.472656 297.808594 141.261719 295.238281 C 139.054688 292.691406 135.1875 292.40625 132.632812 294.609375 C 130.078125 296.828125 129.796875 300.683594 132.003906 303.25 C 134.210938 305.800781 138.078125 306.085938 140.632812 303.863281 Z M 435.347656 292.9375 C 437.875 295.179688 441.730469 294.953125 443.972656 292.425781 C 446.21875 289.898438 445.992188 286.027344 443.484375 283.785156 C 440.957031 281.539062 437.082031 281.765625 434.835938 284.292969 C 432.59375 286.820312 432.820312 290.695312 435.347656 292.9375 Z M 159.488281 288.878906 C 162.175781 286.839844 162.695312 283.007812 160.652344 280.316406 C 158.605469 277.628906 154.765625 277.117188 152.078125 279.15625 C 149.390625 281.195312 148.867188 285.027344 150.914062 287.71875 C 152.957031 290.410156 156.800781 290.9375 159.488281 288.878906 Z M 836.230469 288.410156 C 838.679688 286.085938 838.761719 282.214844 836.4375 279.765625 C 834.109375 277.320312 830.234375 277.21875 827.789062 279.542969 C 825.339844 281.867188 825.257812 285.761719 827.585938 288.207031 C 829.910156 290.632812 833.785156 290.734375 836.230469 288.410156 Z M 416.953125 277.199219 C 419.5625 279.320312 423.417969 278.929688 425.558594 276.324219 C 427.699219 273.714844 427.3125 269.859375 424.679688 267.71875 C 422.070312 265.578125 418.214844 265.964844 416.074219 268.574219 C 413.953125 271.207031 414.339844 275.058594 416.953125 277.199219 Z M 179.023438 274.40625 C 179.023438 274.40625 179.023438 274.40625 179.027344 274.40625 C 181.761719 272.429688 182.375 268.597656 180.394531 265.863281 C 178.414062 263.132812 174.589844 262.5 171.851562 264.5 C 169.117188 266.476562 168.503906 270.289062 170.480469 273.039062 C 172.460938 275.773438 176.289062 276.382812 179.023438 274.40625 Z M 853.996094 271.695312 C 856.460938 269.410156 856.605469 265.539062 854.320312 263.050781 C 852.015625 260.585938 848.140625 260.441406 845.675781 262.726562 C 843.1875 265.027344 843.042969 268.902344 845.347656 271.367188 C 847.632812 273.855469 851.507812 274 853.996094 271.695312 Z M 397.84375 262.582031 C 400.617188 264.519531 404.429688 263.886719 406.386719 261.113281 C 408.324219 258.382812 407.691406 254.550781 404.941406 252.59375 C 402.1875 250.636719 398.351562 251.289062 396.394531 254.042969 C 394.457031 256.792969 395.089844 260.625 397.84375 262.582031 Z M 198.84375 260.625 C 201.679688 258.792969 202.5 255 200.667969 252.164062 C 198.839844 249.332031 195.050781 248.515625 192.210938 250.332031 C 189.375 252.164062 188.554688 255.957031 190.386719 258.792969 C 192.214844 261.625 196.003906 262.441406 198.84375 260.625 Z M 872.023438 255.425781 C 874.574219 253.226562 874.816406 249.351562 872.613281 246.804688 C 870.390625 244.257812 866.515625 244.011719 863.96875 246.214844 C 861.4375 248.433594 861.171875 252.308594 863.398438 254.855469 C 865.597656 257.382812 869.472656 257.648438 872.023438 255.425781 Z M 377.773438 249.660156 C 380.691406 251.351562 384.445312 250.332031 386.117188 247.414062 C 387.808594 244.480469 386.789062 240.730469 383.851562 239.058594 C 380.9375 237.386719 377.183594 238.386719 375.511719 241.320312 C 373.839844 244.234375 374.839844 247.988281 377.773438 249.660156 Z M 219.753906 249.554688 C 222.804688 248.109375 224.109375 244.460938 222.664062 241.402344 C 221.21875 238.34375 217.566406 237.039062 214.515625 238.488281 C 211.460938 239.933594 210.160156 243.582031 211.601562 246.640625 C 213.050781 249.679688 216.699219 250.984375 219.753906 249.554688 Z M 890.582031 239.691406 C 893.171875 237.550781 893.519531 233.675781 891.355469 231.085938 C 889.195312 228.5 885.339844 228.132812 882.75 230.292969 C 880.140625 232.453125 879.792969 236.328125 881.953125 238.914062 C 884.117188 241.503906 887.972656 241.871094 890.582031 239.691406 Z M 241.789062 240.261719 C 244.960938 239.097656 246.585938 235.570312 245.421875 232.414062 C 244.257812 229.253906 240.734375 227.621094 237.566406 228.785156 C 234.398438 229.945312 232.769531 233.472656 233.9375 236.632812 C 235.101562 239.8125 238.621094 241.421875 241.789062 240.261719 Z M 356.546875 239.121094 C 359.664062 240.425781 363.253906 238.957031 364.558594 235.835938 C 365.863281 232.738281 364.398438 229.152344 361.277344 227.847656 C 358.175781 226.542969 354.585938 227.988281 353.28125 231.109375 C 351.976562 234.226562 353.445312 237.816406 356.546875 239.121094 Z M 264.523438 233.25 C 267.8125 232.433594 269.808594 229.109375 268.992188 225.828125 C 268.179688 222.566406 264.855469 220.570312 261.578125 221.363281 C 258.300781 222.179688 256.296875 225.5 257.109375 228.785156 C 257.925781 232.046875 261.242188 234.0625 264.523438 233.25 Z M 334.296875 231.65625 C 337.578125 232.453125 340.882812 230.433594 341.679688 227.152344 C 342.472656 223.871094 340.453125 220.570312 337.171875 219.753906 C 333.886719 218.980469 330.582031 220.996094 329.789062 224.257812 C 328.992188 227.539062 331.011719 230.863281 334.296875 231.65625 Z M 287.777344 229.046875 C 291.140625 228.683594 293.570312 225.664062 293.203125 222.300781 C 292.835938 218.9375 289.796875 216.511719 286.449219 216.898438 C 283.085938 217.246094 280.660156 220.28125 281.027344 223.625 C 281.394531 226.988281 284.433594 229.414062 287.777344 229.046875 Z M 311.230469 228.316406 C 314.59375 228.5 317.492188 225.910156 317.652344 222.527344 C 317.835938 219.160156 315.246094 216.289062 311.863281 216.105469 C 308.496094 215.941406 305.621094 218.53125 305.4375 221.894531 C 305.273438 225.257812 307.863281 228.152344 311.230469 228.316406 Z M 909.445312 224.320312 C 912.078125 222.21875 912.503906 218.367188 910.40625 215.71875 C 908.304688 213.085938 904.449219 212.660156 901.820312 214.757812 C 899.167969 216.859375 898.738281 220.710938 900.839844 223.363281 C 902.941406 225.992188 906.792969 226.417969 909.445312 224.320312 Z M 928.636719 209.375 C 931.328125 207.339844 931.839844 203.507812 929.800781 200.816406 C 927.761719 198.125 923.925781 197.59375 921.234375 199.632812 C 918.542969 201.691406 918.011719 205.523438 920.050781 208.214844 C 922.089844 210.90625 925.945312 211.4375 928.636719 209.375 Z M 948.195312 194.964844 C 950.925781 193.007812 951.582031 189.175781 949.601562 186.445312 C 947.644531 183.691406 943.808594 183.058594 941.078125 185.015625 C 938.324219 186.992188 937.691406 190.804688 939.648438 193.558594 C 941.605469 196.289062 945.441406 196.941406 948.195312 194.964844 Z M 968.160156 181.183594 C 970.976562 179.308594 971.730469 175.515625 969.851562 172.703125 C 967.976562 169.890625 964.183594 169.136719 961.367188 171.011719 C 958.554688 172.867188 957.800781 176.679688 959.675781 179.472656 C 961.53125 182.285156 965.347656 183.058594 968.160156 181.183594 Z M 988.574219 168.136719 C 991.449219 166.363281 992.367188 162.59375 990.59375 159.71875 C 988.839844 156.84375 985.066406 155.945312 982.191406 157.699219 C 979.316406 159.453125 978.398438 163.226562 980.152344 166.097656 C 981.925781 168.992188 985.699219 169.890625 988.574219 168.136719 Z M 1009.480469 155.988281 C 1012.4375 154.355469 1013.515625 150.625 1011.90625 147.671875 C 1010.273438 144.714844 1006.542969 143.632812 1003.585938 145.265625 C 1000.628906 146.894531 999.546875 150.605469 1001.179688 153.5625 C 1002.808594 156.519531 1006.519531 157.597656 1009.480469 155.988281 Z M 1030.933594 144.917969 C 1033.972656 143.472656 1035.257812 139.800781 1033.808594 136.765625 C 1032.339844 133.726562 1028.691406 132.441406 1025.628906 133.890625 C 1022.59375 135.359375 1021.308594 139.007812 1022.773438 142.066406 C 1024.222656 145.101562 1027.894531 146.386719 1030.933594 144.917969 Z M 1052.9375 135.234375 C 1056.078125 133.972656 1057.609375 130.402344 1056.363281 127.285156 C 1055.101562 124.144531 1051.53125 122.617188 1048.410156 123.859375 C 1045.269531 125.125 1043.742188 128.691406 1044.984375 131.8125 C 1046.25 134.949219 1049.816406 136.480469 1052.9375 135.234375 Z M 1075.535156 127.246094 C 1078.757812 126.246094 1080.570312 122.820312 1079.59375 119.601562 C 1078.59375 116.378906 1075.167969 114.566406 1071.945312 115.542969 C 1068.722656 116.523438 1066.90625 119.945312 1067.886719 123.1875 C 1068.886719 126.410156 1072.292969 128.222656 1075.535156 127.246094 Z M 1168.429688 123.085938 C 1171.671875 124.042969 1175.078125 122.167969 1176.015625 118.925781 C 1176.972656 115.707031 1175.117188 112.300781 1171.875 111.34375 C 1168.632812 110.40625 1165.226562 112.261719 1164.289062 115.503906 C 1163.332031 118.742188 1165.1875 122.148438 1168.429688 123.085938 Z M 1098.621094 121.414062 C 1101.945312 120.78125 1104.105469 117.5625 1103.472656 114.238281 C 1102.820312 110.9375 1099.597656 108.773438 1096.296875 109.40625 C 1092.972656 110.058594 1090.808594 113.28125 1091.460938 116.582031 C 1092.09375 119.90625 1095.316406 122.066406 1098.621094 121.414062 Z M 1145.546875 118.703125 C 1148.914062 119.027344 1151.910156 116.582031 1152.238281 113.21875 C 1152.5625 109.855469 1150.117188 106.859375 1146.75 106.53125 C 1143.386719 106.207031 1140.386719 108.671875 1140.0625 112.015625 C 1139.734375 115.378906 1142.203125 118.378906 1145.546875 118.703125 Z M 1122.09375 118.355469 C 1125.460938 118.152344 1128.027344 115.238281 1127.804688 111.875 C 1127.601562 108.488281 1124.703125 105.941406 1121.320312 106.144531 C 1117.953125 106.351562 1115.382812 109.265625 1115.609375 112.628906 C 1115.8125 115.992188 1118.730469 118.558594 1122.09375 118.355469 Z M 1122.09375 118.355469 " fill-opacity="1" fill-rule="evenodd"/></g><g fill="#263a8b" fill-opacity="1"><g transform="translate(51.40051, 311.831819)"><g><path d="M 133.140625 -138.109375 C 133.140625 -141.734375 131.859375 -144.863281 129.296875 -147.5 C 126.734375 -150.132812 123.71875 -151.523438 120.25 -151.671875 L 77.3125 -151.671875 L 77.3125 -16.28125 C 77.457031 -12.351562 78.921875 -9.035156 81.703125 -6.328125 C 84.492188 -3.617188 87.851562 -2.265625 91.78125 -2.265625 L 94.71875 -2.265625 L 94.71875 0 L 45.203125 0 L 45.203125 -2.265625 L 48.140625 -2.265625 C 52.066406 -2.265625 55.421875 -3.617188 58.203125 -6.328125 C 60.992188 -9.035156 62.460938 -12.273438 62.609375 -16.046875 L 62.609375 -151.671875 L 19.671875 -151.671875 C 16.046875 -151.523438 12.988281 -150.132812 10.5 -147.5 C 8.019531 -144.863281 6.78125 -141.734375 6.78125 -138.109375 L 6.78125 -134.265625 L 4.515625 -134.046875 L 4.515625 -162.53125 C 6.773438 -161.625 10.691406 -160.71875 16.265625 -159.8125 C 21.847656 -158.90625 26.972656 -158.453125 31.640625 -158.453125 L 108.046875 -158.453125 C 115.429688 -158.453125 121.570312 -159.015625 126.46875 -160.140625 C 131.363281 -161.273438 134.34375 -162.070312 135.40625 -162.53125 L 135.40625 -134.046875 L 133.140625 -134.265625 Z M 133.140625 -138.109375 "/></g></g></g><g fill="#263a8b" fill-opacity="1"><g transform="translate(191.100168, 311.831819)"><g><path d="M 54.703125 -128.625 L 42.71875 -128.625 L 42.71875 -14.46875 C 42.875 -9.789062 44.984375 -6.25 49.046875 -3.84375 C 51.003906 -2.789062 53.191406 -2.265625 55.609375 -2.265625 L 58.546875 -2.265625 L 58.765625 0 L 12.4375 0 L 12.4375 -2.265625 L 15.59375 -2.265625 C 19.0625 -2.265625 22.035156 -3.429688 24.515625 -5.765625 C 27.003906 -8.097656 28.25 -10.921875 28.25 -14.234375 L 28.25 -121.609375 C 28.25 -124.929688 27.003906 -127.722656 24.515625 -129.984375 C 22.035156 -132.242188 19.0625 -133.375 15.59375 -133.375 L 12.4375 -133.375 L 12.4375 -135.625 L 69.171875 -135.625 C 83.335938 -135.625 94.523438 -132.382812 102.734375 -125.90625 C 110.953125 -119.425781 115.0625 -110.910156 115.0625 -100.359375 C 115.0625 -89.816406 111.742188 -81.003906 105.109375 -73.921875 C 98.484375 -66.835938 90.046875 -62.765625 79.796875 -61.703125 C 84.617188 -59.597656 90.421875 -53.722656 97.203125 -44.078125 C 97.046875 -44.078125 99.640625 -40.757812 104.984375 -34.125 C 110.335938 -27.5 114.632812 -22.335938 117.875 -18.640625 C 121.125 -14.953125 123.800781 -12.128906 125.90625 -10.171875 C 131.476562 -4.898438 137.882812 -2.265625 145.125 -2.265625 L 145.125 0 L 138.109375 0 C 126.203125 0 116.859375 -2.332031 110.078125 -7 C 104.960938 -10.46875 100.289062 -14.765625 96.0625 -19.890625 C 95.164062 -21.097656 91.363281 -26.410156 84.65625 -35.828125 C 77.945312 -45.242188 74.367188 -50.253906 73.921875 -50.859375 C 65.773438 -60.953125 58.164062 -66 51.09375 -66 L 51.09375 -68.265625 C 68.71875 -68.265625 79.335938 -69.171875 82.953125 -70.984375 C 87.929688 -73.546875 91.320312 -76.253906 93.125 -79.109375 C 96.894531 -85.140625 98.78125 -91.773438 98.78125 -99.015625 C 98.78125 -108.203125 96.066406 -115.28125 90.640625 -120.25 C 85.210938 -125.226562 77.90625 -127.941406 68.71875 -128.390625 C 64.644531 -128.546875 59.972656 -128.625 54.703125 -128.625 Z M 54.703125 -128.625 "/></g></g></g><g fill="#263a8b" fill-opacity="1"><g transform="translate(332.834299, 311.831819)"><g><path d="M 149.1875 -2.265625 L 151 -2.265625 L 151 0 L 104.65625 0 L 104.65625 -2.265625 L 106.46875 -2.265625 C 109.332031 -2.265625 111.515625 -3.242188 113.015625 -5.203125 C 114.523438 -7.160156 115.28125 -9.003906 115.28125 -10.734375 C 115.28125 -12.472656 114.976562 -14.171875 114.375 -15.828125 L 101.953125 -45.890625 L 44.75 -45.890625 L 32.328125 -16.5 C 31.566406 -14.539062 31.1875 -12.691406 31.1875 -10.953125 C 31.1875 -9.222656 31.941406 -7.34375 33.453125 -5.3125 C 34.960938 -3.28125 37.222656 -2.265625 40.234375 -2.265625 L 42.046875 -2.265625 L 42.046875 0 L -1.125 0 L -1.125 -2.265625 L 0.671875 -2.265625 C 3.835938 -2.265625 7.039062 -3.351562 10.28125 -5.53125 C 13.519531 -7.71875 16.195312 -11 18.3125 -15.375 C 51.3125 -85.894531 68.488281 -122.816406 69.84375 -126.140625 C 72.40625 -132.460938 73.765625 -136.679688 73.921875 -138.796875 L 75.953125 -138.796875 L 131.78125 -15.375 C 136.15625 -6.632812 141.957031 -2.265625 149.1875 -2.265625 Z M 47.703125 -52.671875 L 99.234375 -52.671875 L 73.921875 -114.609375 Z M 47.703125 -52.671875 "/></g></g></g><g fill="#263a8b" fill-opacity="1"><g transform="translate(482.706296, 311.831819)"><g><path d="M 151.21875 -133.375 L 149.40625 -133.375 C 146.09375 -133.375 142.851562 -132.28125 139.6875 -130.09375 C 136.519531 -127.90625 133.804688 -124.625 131.546875 -120.25 C 98.703125 -49.726562 81.597656 -12.8125 80.234375 -9.5 C 77.671875 -3.164062 76.316406 1.054688 76.171875 3.171875 L 74.140625 3.171875 L 18.296875 -120.03125 C 13.929688 -128.925781 8.128906 -133.375 0.890625 -133.375 L -0.90625 -133.375 L -0.90625 -135.625 L 45.421875 -135.625 L 45.421875 -133.375 L 43.625 -133.375 C 40.757812 -133.375 38.609375 -132.351562 37.171875 -130.3125 C 35.742188 -128.28125 35.03125 -126.4375 35.03125 -124.78125 C 35.03125 -123.125 35.253906 -121.390625 35.703125 -119.578125 L 76.171875 -21.015625 L 117.765625 -119.125 C 118.515625 -121.082031 118.890625 -122.925781 118.890625 -124.65625 C 118.890625 -126.394531 118.132812 -128.28125 116.625 -130.3125 C 115.125 -132.351562 112.863281 -133.375 109.84375 -133.375 L 108.265625 -133.375 L 108.265625 -135.625 L 151.21875 -135.625 Z M 151.21875 -133.375 "/></g></g></g><g fill="#263a8b" fill-opacity="1"><g transform="translate(632.578293, 311.831819)"><g><path d="M 15.59375 -2.265625 C 19.207031 -2.265625 22.257812 -3.429688 24.75 -5.765625 C 27.238281 -8.097656 28.554688 -10.921875 28.703125 -14.234375 L 28.703125 -121.609375 C 28.703125 -124.929688 27.421875 -127.722656 24.859375 -129.984375 C 22.296875 -132.242188 19.207031 -133.375 15.59375 -133.375 L 12.4375 -133.375 L 12.4375 -135.625 L 78.4375 -135.625 C 84.613281 -135.625 90.035156 -136.078125 94.703125 -136.984375 C 99.378906 -137.890625 102.394531 -138.644531 103.75 -139.25 L 103.75 -113.46875 L 101.265625 -113.703125 L 101.265625 -117.09375 C 101.265625 -120.257812 100.207031 -122.972656 98.09375 -125.234375 C 95.988281 -127.492188 93.28125 -128.625 89.96875 -128.625 L 42.953125 -128.625 L 42.953125 -71.203125 L 81.609375 -71.203125 C 84.617188 -71.203125 86.914062 -72.101562 88.5 -73.90625 C 90.082031 -75.71875 90.875 -77.984375 90.875 -80.703125 L 90.875 -83.640625 L 93.359375 -83.640625 L 93.359375 -51.984375 L 90.875 -51.984375 L 90.875 -54.921875 C 90.875 -59.148438 89.289062 -62.015625 86.125 -63.515625 C 84.914062 -63.972656 83.632812 -64.273438 82.28125 -64.421875 L 42.953125 -64.421875 L 42.953125 -7 L 78.4375 -7 C 85.375 -7 91.210938 -8.203125 95.953125 -10.609375 C 100.703125 -13.023438 104.316406 -15.890625 106.796875 -19.203125 C 109.285156 -22.523438 111.8125 -26.898438 114.375 -32.328125 L 116.640625 -32.328125 L 104.203125 0 L 12.4375 0 L 12.4375 -2.265625 Z M 15.59375 -2.265625 "/></g></g></g><g fill="#263a8b" fill-opacity="1"><g transform="translate(756.00227, 311.831819)"><g><path d="M 15.59375 -2.265625 C 19.207031 -2.265625 22.257812 -3.429688 24.75 -5.765625 C 27.238281 -8.097656 28.554688 -10.921875 28.703125 -14.234375 L 28.703125 -121.15625 C 28.554688 -124.476562 27.160156 -127.34375 24.515625 -129.75 C 21.878906 -132.164062 18.753906 -133.375 15.140625 -133.375 L 12.4375 -133.375 L 12.4375 -135.625 L 59.21875 -135.625 L 59.21875 -133.375 L 56.515625 -133.375 C 52.898438 -133.375 49.769531 -132.164062 47.125 -129.75 C 44.488281 -127.34375 43.171875 -124.476562 43.171875 -121.15625 L 43.171875 -7 L 78.4375 -7 C 85.375 -7 91.25 -8.203125 96.0625 -10.609375 C 100.882812 -13.023438 104.539062 -15.890625 107.03125 -19.203125 C 109.519531 -22.523438 111.96875 -26.898438 114.375 -32.328125 L 116.640625 -32.328125 L 104.203125 0 L 12.4375 0 L 12.4375 -2.265625 Z M 15.59375 -2.265625 "/></g></g></g><g fill="#263a8b" fill-opacity="1"><g transform="translate(877.165755, 311.831819)"><g><path d="M 15.59375 -2.265625 C 19.207031 -2.265625 22.257812 -3.429688 24.75 -5.765625 C 27.238281 -8.097656 28.554688 -10.921875 28.703125 -14.234375 L 28.703125 -121.15625 C 28.554688 -124.476562 27.160156 -127.34375 24.515625 -129.75 C 21.878906 -132.164062 18.753906 -133.375 15.140625 -133.375 L 12.4375 -133.375 L 12.4375 -135.625 L 59.21875 -135.625 L 59.21875 -133.375 L 56.515625 -133.375 C 52.898438 -133.375 49.769531 -132.164062 47.125 -129.75 C 44.488281 -127.34375 43.171875 -124.476562 43.171875 -121.15625 L 43.171875 -7 L 78.4375 -7 C 85.375 -7 91.25 -8.203125 96.0625 -10.609375 C 100.882812 -13.023438 104.539062 -15.890625 107.03125 -19.203125 C 109.519531 -22.523438 111.96875 -26.898438 114.375 -32.328125 L 116.640625 -32.328125 L 104.203125 0 L 12.4375 0 L 12.4375 -2.265625 Z M 15.59375 -2.265625 "/></g></g></g><g fill="#263a8b" fill-opacity="1"><g transform="translate(998.32924, 311.831819)"><g><path d="M 15.59375 -2.265625 C 19.207031 -2.265625 22.257812 -3.429688 24.75 -5.765625 C 27.238281 -8.097656 28.554688 -10.921875 28.703125 -14.234375 L 28.703125 -121.609375 C 28.703125 -124.929688 27.421875 -127.722656 24.859375 -129.984375 C 22.296875 -132.242188 19.207031 -133.375 15.59375 -133.375 L 12.4375 -133.375 L 12.4375 -135.625 L 78.4375 -135.625 C 84.613281 -135.625 90.035156 -136.078125 94.703125 -136.984375 C 99.378906 -137.890625 102.394531 -138.644531 103.75 -139.25 L 103.75 -113.46875 L 101.265625 -113.703125 L 101.265625 -117.09375 C 101.265625 -120.257812 100.207031 -122.972656 98.09375 -125.234375 C 95.988281 -127.492188 93.28125 -128.625 89.96875 -128.625 L 42.953125 -128.625 L 42.953125 -71.203125 L 81.609375 -71.203125 C 84.617188 -71.203125 86.914062 -72.101562 88.5 -73.90625 C 90.082031 -75.71875 90.875 -77.984375 90.875 -80.703125 L 90.875 -83.640625 L 93.359375 -83.640625 L 93.359375 -51.984375 L 90.875 -51.984375 L 90.875 -54.921875 C 90.875 -59.148438 89.289062 -62.015625 86.125 -63.515625 C 84.914062 -63.972656 83.632812 -64.273438 82.28125 -64.421875 L 42.953125 -64.421875 L 42.953125 -7 L 78.4375 -7 C 85.375 -7 91.210938 -8.203125 95.953125 -10.609375 C 100.703125 -13.023438 104.316406 -15.890625 106.796875 -19.203125 C 109.285156 -22.523438 111.8125 -26.898438 114.375 -32.328125 L 116.640625 -32.328125 L 104.203125 0 L 12.4375 0 L 12.4375 -2.265625 Z M 15.59375 -2.265625 "/></g></g></g><g fill="#263a8b" fill-opacity="1"><g transform="translate(1121.753217, 311.831819)"><g><path d="M 54.703125 -128.625 L 42.71875 -128.625 L 42.71875 -14.46875 C 42.875 -9.789062 44.984375 -6.25 49.046875 -3.84375 C 51.003906 -2.789062 53.191406 -2.265625 55.609375 -2.265625 L 58.546875 -2.265625 L 58.765625 0 L 12.4375 0 L 12.4375 -2.265625 L 15.59375 -2.265625 C 19.0625 -2.265625 22.035156 -3.429688 24.515625 -5.765625 C 27.003906 -8.097656 28.25 -10.921875 28.25 -14.234375 L 28.25 -121.609375 C 28.25 -124.929688 27.003906 -127.722656 24.515625 -129.984375 C 22.035156 -132.242188 19.0625 -133.375 15.59375 -133.375 L 12.4375 -133.375 L 12.4375 -135.625 L 69.171875 -135.625 C 83.335938 -135.625 94.523438 -132.382812 102.734375 -125.90625 C 110.953125 -119.425781 115.0625 -110.910156 115.0625 -100.359375 C 115.0625 -89.816406 111.742188 -81.003906 105.109375 -73.921875 C 98.484375 -66.835938 90.046875 -62.765625 79.796875 -61.703125 C 84.617188 -59.597656 90.421875 -53.722656 97.203125 -44.078125 C 97.046875 -44.078125 99.640625 -40.757812 104.984375 -34.125 C 110.335938 -27.5 114.632812 -22.335938 117.875 -18.640625 C 121.125 -14.953125 123.800781 -12.128906 125.90625 -10.171875 C 131.476562 -4.898438 137.882812 -2.265625 145.125 -2.265625 L 145.125 0 L 138.109375 0 C 126.203125 0 116.859375 -2.332031 110.078125 -7 C 104.960938 -10.46875 100.289062 -14.765625 96.0625 -19.890625 C 95.164062 -21.097656 91.363281 -26.410156 84.65625 -35.828125 C 77.945312 -45.242188 74.367188 -50.253906 73.921875 -50.859375 C 65.773438 -60.953125 58.164062 -66 51.09375 -66 L 51.09375 -68.265625 C 68.71875 -68.265625 79.335938 -69.171875 82.953125 -70.984375 C 87.929688 -73.546875 91.320312 -76.253906 93.125 -79.109375 C 96.894531 -85.140625 98.78125 -91.773438 98.78125 -99.015625 C 98.78125 -108.203125 96.066406 -115.28125 90.640625 -120.25 C 85.210938 -125.226562 77.90625 -127.941406 68.71875 -128.390625 C 64.644531 -128.546875 59.972656 -128.625 54.703125 -128.625 Z M 54.703125 -128.625 "/></g></g></g></svg>