<svg xmlns="http://www.w3.org/2000/svg" xmlns:xlink="http://www.w3.org/1999/xlink" width="500" zoomAndPan="magnify" viewBox="0 0 375 374.999991" height="500" preserveAspectRatio="xMidYMid meet" version="1.0"><defs><clipPath id="a12aa1e734"><path d="M 10.050781 10.050781 L 364.800781 10.050781 L 364.800781 364.800781 L 10.050781 364.800781 Z M 10.050781 10.050781 " clip-rule="nonzero"/></clipPath></defs><g clip-path="url(#a12aa1e734)"><path fill="#263a8b" d="M 187.425781 10.050781 C 89.464844 10.050781 10.050781 89.464844 10.050781 187.425781 C 10.050781 285.386719 89.464844 364.800781 187.425781 364.800781 C 285.386719 364.800781 364.800781 285.386719 364.800781 187.425781 C 364.800781 89.464844 285.386719 10.050781 187.425781 10.050781 Z M 187.425781 72.410156 C 213.078125 72.410156 233.871094 96.984375 233.871094 127.296875 C 233.871094 157.613281 213.078125 182.1875 187.425781 182.1875 C 161.777344 182.1875 140.984375 157.613281 140.984375 127.296875 C 140.984375 96.984375 161.777344 72.410156 187.425781 72.410156 Z M 266.039062 288.585938 L 108.8125 288.585938 C 100.929688 288.585938 94.539062 282.195312 94.539062 274.3125 C 94.539062 237.421875 136.125 207.519531 187.425781 207.519531 C 238.726562 207.519531 280.3125 237.421875 280.3125 274.3125 C 280.3125 282.195312 273.925781 288.585938 266.039062 288.585938 Z M 266.039062 288.585938 " fill-opacity="1" fill-rule="nonzero"/></g></svg>